<?xml version="1.0" standalone="no"?><!DOCTYPE svg PUBLIC "-//W3C//DTD SVG 1.1//EN" "http://www.w3.org/Graphics/SVG/1.1/DTD/svg11.dtd"><svg t="1588496333319" class="icon" viewBox="0 0 1024 1024" version="1.1" xmlns="http://www.w3.org/2000/svg" p-id="5578" xmlns:xlink="http://www.w3.org/1999/xlink" width="200" height="200"><defs><style type="text/css"></style></defs><path d="M511.67 64.22C264.23 64.22 64 264.45 64 511.89s200.23 447.67 447.67 447.67 447.67-200.23 447.67-447.67S759.1 64.22 511.67 64.22z m183.95 560.81c-6.51 8.14-23.6-1.63-36.63-28.49-3.26 12.21-11.4 31.74-30.12 56.16 30.93 7.33 39.07 37.44 29.3 53.72-7.33 11.4-23.6 21.16-52.09 21.16-51.28 0-73.25-13.84-83.84-23.6-1.63-2.44-4.88-3.26-8.95-3.26s-6.51 0.81-8.95 3.26c-9.77 9.77-32.56 23.6-83.84 23.6-28.49 0-45.58-9.77-52.09-21.16-10.58-16.28-1.63-46.39 29.3-53.72-17.91-24.42-26.05-43.95-30.12-56.16-12.21 26.86-30.12 37.44-36.63 28.49-4.88-7.33-7.33-22.79-6.51-33.37 3.26-40.7 30.12-74.88 46.39-92.79-2.44-4.88-7.33-35 13.02-55.35v-1.63c0-80.58 56.98-138.37 129.42-138.37 71.63 0 129.42 57.79 129.42 138.37v1.63c20.35 20.35 15.46 50.46 13.02 55.35 15.46 17.91 43.14 52.09 46.39 92.79 0.83 10.58-0.8 26.04-6.49 33.37z" fill="#30A5DD" p-id="5579"></path></svg>
