<?xml version="1.0" standalone="no"?><!DOCTYPE svg PUBLIC "-//W3C//DTD SVG 1.1//EN" "http://www.w3.org/Graphics/SVG/1.1/DTD/svg11.dtd"><svg t="1588496306786" class="icon" viewBox="0 0 1024 1024" version="1.1" xmlns="http://www.w3.org/2000/svg" p-id="5219" xmlns:xlink="http://www.w3.org/1999/xlink" width="200" height="200"><defs><style type="text/css"></style></defs><path d="M512.04 511.79m-444.83 0a444.83 444.83 0 1 0 889.66 0 444.83 444.83 0 1 0-889.66 0Z" fill="#53D109" p-id="5220"></path><path d="M781.97 569.11c0-74.43-73.21-134.77-163.53-134.77s-163.53 60.34-163.53 134.77 73.21 134.78 163.53 134.78c15.74 0 30.95-1.84 45.35-5.26l56.53 22.33-6.31-42.49c41.17-24.47 67.96-64.34 67.96-109.36z m-215.41-21.92c-11.01 0-19.93-8.92-19.93-19.93s8.92-19.93 19.93-19.93 19.93 8.92 19.93 19.93-8.92 19.93-19.93 19.93z m102.84-39.86c11.01 0 19.93 8.92 19.93 19.93s-8.92 19.93-19.93 19.93-19.93-8.92-19.93-19.93 8.92-19.93 19.93-19.93z" fill="#FFFFFF" p-id="5221"></path><path d="M431.06 290.02c-110.82 0-200.65 70.82-200.65 158.18 0 50.85 30.44 96.09 77.73 125.03l-7.33 60.97 77.86-33.28c16.71 3.55 34.27 5.46 52.4 5.46 5.9 0 11.73-0.21 17.5-0.61-5.15-13.84-7.95-28.61-7.95-43.94 0-78.63 73.21-142.38 163.53-142.38 8.37 0 16.59 0.55 24.62 1.61-16.34-74.42-98.63-131.04-197.71-131.04z m-64.04 133.25c-13.5 0-24.44-10.94-24.44-24.44 0-13.5 10.94-24.44 24.44-24.44 13.5 0 24.44 10.94 24.44 24.44 0 13.5-10.95 24.44-24.44 24.44z m135.43 0c-13.5 0-24.44-10.94-24.44-24.44 0-13.5 10.94-24.44 24.44-24.44 13.5 0 24.44 10.94 24.44 24.44 0 13.5-10.94 24.44-24.44 24.44z" fill="#FFFFFF" p-id="5222"></path></svg>